# xmcd
#
# Track frame offsets: 
#        150
#        18715
#        50172
#        76085
#        92547
#        132587
#        159332
#        175114
#
# Disc length: 2747 seconds
#
# Revision: 4
# Processed by: cddbd v1.5.2PL0 Copyright (c) Steve Scherf et al.
# Submitted via: ExactAudioCopy v1.3
#
DISCID=5e0ab908
DTITLE=Various Artist - 風潮 水晶音樂 守護愛2004
DYEAR=1900
DGENRE=New Age
TTITLE0=Eightteenth Vanation from On A Theme of Pagamini~Rachmaninof
TTITLE1=Wind
TTITLE2=Morning Dew
TTITLE3=Dour Lindenbaum
TTITLE4=Crystal Rain
TTITLE5=Les contes d'Hoffmann~Offenbach, Jacques
TTITLE6=Auf Flugeln des Gesanges
TTITLE7=Sunflowers
EXTD=
EXTT0=
EXTT1=
EXTT2=
EXTT3=
EXTT4=
EXTT5=
EXTT6=
EXTT7=
PLAYORDER=
